<svg xmlns="http://www.w3.org/2000/svg" xmlns:xlink="http://www.w3.org/1999/xlink" width="1920" zoomAndPan="magnify" viewBox="0 0 1440 809.999993" height="1080" preserveAspectRatio="xMidYMid meet" version="1.0"><defs><g/><clipPath id="c739c535be"><path d="M 23 15 L 75 15 L 75 78.691406 L 23 78.691406 Z M 23 15 " clip-rule="nonzero"/></clipPath><clipPath id="717dcf16a2"><path d="M 0.304688 0.527344 L 78.46875 0.527344 L 78.46875 78.691406 L 0.304688 78.691406 Z M 0.304688 0.527344 " clip-rule="nonzero"/></clipPath><clipPath id="db3e3fa66a"><rect x="0" width="9" y="0" height="37"/></clipPath><clipPath id="172655b0cf"><rect x="0" width="79" y="0" height="79"/></clipPath></defs><g transform="matrix(1, 0, 0, 1, 680, 365)"><g clip-path="url(#172655b0cf)"><g clip-path="url(#c739c535be)"><path fill="#512626" d="M 74.660156 56.511719 L 33.132812 15.085938 L 30.203125 15.085938 L 30.203125 43.519531 L 23.265625 62.277344 L 39.582031 78.691406 C 55.019531 78.59375 68.308594 69.605469 74.660156 56.511719 Z M 74.660156 56.511719 " fill-opacity="1" fill-rule="nonzero"/></g><g clip-path="url(#717dcf16a2)"><path fill="#723333" d="M 30.203125 43.519531 L 30.203125 15.085938 L 33.132812 15.085938 L 74.5625 56.511719 C 77.101562 51.433594 78.46875 45.667969 78.46875 39.609375 C 78.46875 18.015625 60.980469 0.527344 39.386719 0.527344 C 17.792969 0.527344 0.304688 18.015625 0.304688 39.609375 C 0.304688 61.203125 17.792969 78.691406 39.386719 78.691406 C 39.484375 78.691406 39.484375 78.691406 39.582031 78.691406 L 23.265625 62.277344 Z M 30.203125 43.519531 " fill-opacity="1" fill-rule="nonzero"/></g><path fill="#ffffff" d="M 37.824219 60.324219 L 37.824219 35.410156 C 37.824219 31.890625 32.9375 30.816406 32.9375 30.816406 L 32.9375 18.503906 C 33.230469 18.210938 33.425781 17.625 33.425781 17.625 L 33.425781 15.769531 C 33.425781 14.597656 32.253906 14.597656 32.253906 14.597656 L 28.445312 14.597656 C 28.445312 14.597656 27.273438 14.597656 27.273438 15.769531 L 27.273438 17.625 C 27.273438 17.625 27.371094 18.210938 27.761719 18.503906 L 27.761719 30.816406 C 27.761719 30.816406 22.875 31.890625 22.875 35.410156 L 22.875 60.324219 C 22.875 60.324219 22.484375 64.621094 30.398438 64.621094 C 38.214844 64.621094 37.824219 60.324219 37.824219 60.324219 Z M 37.824219 60.324219 " fill-opacity="1" fill-rule="nonzero"/><path fill="#ffffff" d="M 49.453125 62.863281 L 49.453125 49.964844 C 53.164062 49.574219 56.09375 45.667969 56.09375 40.878906 C 56.09375 40.683594 56.09375 40.585938 56.09375 40.390625 L 41.441406 40.390625 C 41.441406 40.585938 41.441406 40.683594 41.441406 40.878906 C 41.441406 45.667969 44.371094 49.476562 48.082031 49.964844 L 48.082031 62.863281 C 45.054688 62.960938 42.710938 63.253906 42.710938 63.742188 C 42.710938 64.230469 45.445312 64.621094 48.769531 64.621094 C 52.089844 64.621094 54.824219 64.230469 54.824219 63.742188 C 54.921875 63.253906 52.480469 62.960938 49.453125 62.863281 Z M 49.453125 62.863281 " fill-opacity="1" fill-rule="nonzero"/><g transform="matrix(1, 0, 0, 1, 52, 36)"><g clip-path="url(#db3e3fa66a)"><g fill="#000000" fill-opacity="1"><g transform="translate(0.0848717, 28.51)"><g><path d="M 1.921875 -1.34375 C 1.921875 -1.90625 2.050781 -2.332031 2.3125 -2.625 C 2.570312 -2.914062 2.941406 -3.0625 3.421875 -3.0625 C 3.910156 -3.0625 4.289062 -2.914062 4.5625 -2.625 C 4.832031 -2.332031 4.96875 -1.90625 4.96875 -1.34375 C 4.96875 -0.789062 4.828125 -0.367188 4.546875 -0.078125 C 4.273438 0.210938 3.898438 0.359375 3.421875 0.359375 C 2.984375 0.359375 2.625 0.226562 2.34375 -0.03125 C 2.0625 -0.300781 1.921875 -0.738281 1.921875 -1.34375 Z M 1.921875 -1.34375 "/></g></g></g></g></g></g></g></svg>